<svg width="260" height="260" viewBox="0 0 260 260" fill="none" xmlns="http://www.w3.org/2000/svg">
<rect width="260" height="260" rx="57.8906" fill="url(#paint0_linear_1_173)"/>
<path d="M56.4676 150.4V144.16C66.3676 135.76 76.7476 128.02 76.7476 119.98C76.7476 116.08 75.0076 113.44 70.8676 113.44C66.8476 113.44 64.6276 116.32 64.5676 120.94H56.4076C56.7076 110.92 63.1276 106.3 70.9876 106.3C80.4076 106.3 85.1476 111.88 85.1476 119.5C85.1476 129.64 75.3676 137.56 68.4076 143.44H86.1076V150.4H56.4676ZM91.4007 128.56C91.4007 115.9 95.2407 106.42 107.601 106.42C119.961 106.42 123.801 115.9 123.801 128.56C123.801 141.34 119.961 150.88 107.601 150.88C95.2407 150.88 91.4007 141.34 91.4007 128.56ZM115.521 128.56C115.521 121.06 114.681 114.22 107.601 114.22C100.521 114.22 99.6807 121.06 99.6807 128.56C99.6807 136.36 100.521 143.08 107.601 143.08C114.681 143.08 115.521 136.36 115.521 128.56ZM150.83 151V142.48H129.83V135.88L149.45 107.8H159.23V135.16H164.51V142.48H159.23V151H150.83ZM139.07 135.16H151.37V116.8L139.07 135.16ZM177.178 127.84C173.578 125.98 171.178 122.92 171.178 118.18C171.178 111.88 175.978 106.42 185.938 106.42C195.898 106.42 200.698 111.94 200.698 118.18C200.698 122.8 198.178 126.1 194.758 127.84C199.078 129.7 201.778 133.48 201.778 138.58C201.778 146.92 194.938 151.96 185.938 151.96C176.998 151.96 170.158 146.92 170.158 138.58C170.158 133.42 172.858 129.64 177.178 127.84ZM185.938 125.38C189.778 125.38 192.538 122.98 192.538 119.38C192.538 115.42 189.958 113.2 185.938 113.2C182.038 113.2 179.398 115.36 179.398 119.44C179.398 123.04 182.158 125.38 185.938 125.38ZM185.938 131.5C181.558 131.5 178.258 133.78 178.258 138.22C178.258 142.12 181.138 145 185.938 145C190.738 145 193.558 142.06 193.558 138.22C193.558 133.9 190.438 131.5 185.938 131.5Z" fill="#BDBDBD"/>
<defs>
<linearGradient id="paint0_linear_1_173" x1="130" y1="0" x2="130" y2="260" gradientUnits="userSpaceOnUse">
<stop stop-color="#2E2E2F"/>
<stop offset="1" stop-color="#1A1A1B"/>
</linearGradient>
</defs>
</svg>
